<svg xmlns="http://www.w3.org/2000/svg" viewBox="0 0 200 200" width="1024" height="1024" fill="none">
  <defs>
    <linearGradient id="cb1-bg" x1="100" y1="0" x2="100" y2="200" gradientUnits="userSpaceOnUse">
      <stop stop-color="#3FA2F7"/>
      <stop offset="1" stop-color="#0A66C2"/>
    </linearGradient>
    <linearGradient id="cb1-rb" x1="70" y1="147.5" x2="250" y2="172.5" gradientUnits="userSpaceOnUse">
      <stop stop-color="#FFB340"/>
      <stop offset="1" stop-color="#F57C00"/>
    </linearGradient>
    <clipPath id="cb1-clip"><rect width="200" height="200" rx="45"/></clipPath>
  </defs>
  <g clip-path="url(#cb1-clip)">
  <rect width="200" height="200" fill="url(#cb1-bg)"/>
  <rect x="36" y="80" width="128" height="76" rx="14" fill="#FFFFFF"/>
  <path d="M48 88V56A16 16 0 0 1 64 40H136A16 16 0 0 1 152 56V88H48Z" fill="#E04A32"/>
  <g fill="#FFFFFF">
    <rect x="74" y="46" width="52" height="8" rx="3"/>
    <rect x="80" y="59" width="40" height="8" rx="3"/>
    <rect x="74" y="72" width="52" height="8" rx="3"/>
    <rect x="96" y="46" width="8" height="34" rx="3"/>
  </g>
  <g transform="rotate(-45 160 160)">
    <rect x="70" y="147.5" width="180" height="25" fill="url(#cb1-rb)"/>
    <text x="160.3" y="165" text-anchor="middle" font-family='-apple-system,"Helvetica Neue",Helvetica,Arial,sans-serif' font-size="14"
      font-weight="700" letter-spacing="1.3" fill="#FFFFFF">BETA</text>
  </g>
  </g>
</svg>
